<?xml version="1.0" encoding="iso-8859-1"?>
<!-- Generator: Adobe Illustrator 19.0.0, SVG Export Plug-In . SVG Version: 6.00 Build 0)  -->
<svg version="1.1" id="Capa_1" xmlns="http://www.w3.org/2000/svg" xmlns:xlink="http://www.w3.org/1999/xlink" x="0px" y="0px"
	 viewBox="0 0 512 512" style="enable-background:new 0 0 512 512;" xml:space="preserve">
<g>
	<g>
		<path d="M359.153,381.771c-5.552,0-10.039,4.498-10.039,10.039s4.487,10.039,10.039,10.039c5.542,0,10.039-4.498,10.039-10.039
			S364.695,381.771,359.153,381.771z"/>
	</g>
</g>
<g>
	<g>
		<path d="M216.825,372.891c-0.008-0.17-0.009-0.339-0.026-0.509c-0.235-2.504-1.393-4.732-3.127-6.357l-71.699-71.699
			l-41.131-64.694c-6.613-10.402-17.87-16.362-29.565-16.535V105.863c0-19.652-15.987-35.639-35.639-35.639
			c-9.532,0-18.484,3.709-25.208,10.448C3.704,87.414,0,96.36,0,105.868l0.07,202.12c0.001,2.267,0.769,4.466,2.18,6.242
			l92.751,116.724v56.149c0,5.544,4.496,10.039,10.039,10.039h101.768c5.544,0,10.039-4.496,10.039-10.039V373.328
			C216.847,373.181,216.831,373.037,216.825,372.891z M196.769,477.064H115.08V427.45c0-2.269-0.769-4.469-2.18-6.246
			L20.148,304.477l-0.069-198.614c0-4.148,1.621-8.058,4.566-11.01c2.929-2.934,6.834-4.551,10.995-4.551
			c8.581,0,15.561,6.98,15.561,15.561v113.115c-10.075,6.616-16.083,17.705-16.083,29.793c0,6.77,1.929,13.377,5.572,19.1
			l43.983,69.186c0.482,0.991,1.13,1.904,1.926,2.701l59.151,59.151c1.961,1.96,4.53,2.94,7.099,2.94
			c2.569,0,5.138-0.981,7.099-2.94c3.92-3.92,3.92-10.277,0-14.198l-58.163-58.163l-44.154-69.456
			c-1.592-2.501-2.433-5.378-2.433-8.322c0-5.362,2.699-10.278,7.225-13.155c0.816-0.519,1.667-0.957,2.57-1.316
			c6.931-2.792,14.884-0.226,18.908,6.103l41.724,65.626c0.394,0.619,0.854,1.193,1.372,1.713l69.774,69.778V477.064z"/>
	</g>
</g>
<g>
	<g>
		<path d="M501.567,80.671c-6.722-6.737-15.674-10.447-25.206-10.447c-19.652,0-35.639,15.987-35.639,35.639v107.242
			c-11.703,0.174-22.955,6.13-29.563,16.526l-41.132,64.695l-71.859,71.859c-0.269,0.264-0.523,0.542-0.762,0.834
			c-0.009,0.011-0.017,0.024-0.026,0.035c-0.194,0.24-0.378,0.489-0.549,0.746c-0.066,0.099-0.122,0.203-0.185,0.304
			c-0.107,0.175-0.217,0.349-0.314,0.531c-0.069,0.13-0.128,0.263-0.19,0.396c-0.077,0.163-0.159,0.322-0.227,0.49
			c-0.058,0.142-0.105,0.285-0.157,0.429c-0.059,0.165-0.122,0.327-0.173,0.495c-0.046,0.153-0.08,0.307-0.118,0.462
			c-0.041,0.163-0.086,0.323-0.119,0.489c-0.037,0.186-0.059,0.372-0.085,0.559c-0.019,0.138-0.046,0.272-0.059,0.412
			c-0.033,0.332-0.05,0.665-0.05,0.998v113.739c0,5.544,4.496,10.039,10.039,10.039H406.96c5.544,0,10.039-4.496,10.039-10.039
			v-56.149l92.751-116.724c1.41-1.776,2.178-3.975,2.179-6.242L512,105.863C512,96.36,508.296,87.414,501.567,80.671z
			 M491.852,304.478L399.1,421.204c-1.411,1.777-2.18,3.978-2.18,6.246v49.614h-81.689v-99.546l69.774-69.775
			c0.519-0.52,0.98-1.093,1.372-1.713l41.725-65.627c4.023-6.33,11.973-8.896,18.945-6.087c0.863,0.344,1.716,0.782,2.536,1.305
			c4.522,2.872,7.22,7.789,7.22,13.151c0,2.943-0.841,5.821-2.438,8.328l-44.149,69.45l-35.977,35.976
			c-3.92,3.92-3.92,10.277,0,14.198c3.921,3.919,10.276,3.921,14.198,0l36.964-36.963c0.772-0.773,1.401-1.659,1.874-2.62
			l44.028-69.26c3.648-5.728,5.577-12.335,5.577-19.106c0-12.09-6.008-23.182-16.083-29.792v-113.12
			c0-8.581,6.98-15.561,15.561-15.561c4.162,0,8.066,1.616,10.994,4.55c2.945,2.952,4.567,6.863,4.567,11.007L491.852,304.478z"/>
	</g>
</g>
<g>
	<g>
		<path d="M256,14.858c-72.672,0-131.795,59.123-131.795,131.795S183.328,278.448,256,278.448s131.795-59.123,131.795-131.795
			S328.672,14.858,256,14.858z M367.261,136.614h-48.412c-1.031-30.112-6.672-58.238-16.171-80.062
			c-2.317-5.324-4.829-10.166-7.504-14.521C334.513,56.809,363.372,93.169,367.261,136.614z M256,34.936
			c9.625,0,20.192,11.076,28.267,29.63c8.448,19.406,13.499,44.696,14.497,72.048h-85.528v-0.001
			c0.997-27.352,6.049-52.642,14.497-72.048C235.808,46.013,246.375,34.936,256,34.936z M216.827,42.031
			c-2.675,4.355-5.187,9.197-7.504,14.521c-9.5,21.823-15.14,49.95-16.171,80.062h-48.412
			C148.628,93.169,177.487,56.809,216.827,42.031z M144.739,156.692h48.412c1.031,30.112,6.672,58.239,16.171,80.062
			c2.317,5.324,4.829,10.166,7.504,14.521C177.487,236.497,148.628,200.138,144.739,156.692z M256,258.369
			c-9.625,0-20.192-11.076-28.267-29.63c-8.448-19.407-13.499-44.696-14.497-72.048h85.528
			c-0.997,27.352-6.049,52.641-14.497,72.048C276.192,247.293,265.625,258.369,256,258.369z M295.173,251.274
			c2.676-4.355,5.187-9.197,7.504-14.521c9.5-21.823,15.14-49.95,16.171-80.062h48.412
			C363.372,200.138,334.513,236.497,295.173,251.274z"/>
	</g>
</g>
<g>
</g>
<g>
</g>
<g>
</g>
<g>
</g>
<g>
</g>
<g>
</g>
<g>
</g>
<g>
</g>
<g>
</g>
<g>
</g>
<g>
</g>
<g>
</g>
<g>
</g>
<g>
</g>
<g>
</g>
</svg>
